<?xml version="1.0" encoding="UTF-8" standalone="no"?>
<!DOCTYPE svg PUBLIC "-//W3C//DTD SVG 1.1//EN" "http://www.w3.org/Graphics/SVG/1.1/DTD/svg11.dtd">
<svg width="100%" height="100%" viewBox="0 0 2875 234" version="1.1" xmlns="http://www.w3.org/2000/svg" xmlns:xlink="http://www.w3.org/1999/xlink" xml:space="preserve" xmlns:serif="http://www.serif.com/" style="fill-rule:evenodd;clip-rule:evenodd;stroke-linejoin:round;stroke-miterlimit:2;">
    <g transform="matrix(1,0,0,1,-294.623,-700.415)">
        <g transform="matrix(2.59043,0,0,2.59043,-539.969,-1726.69)">
            <path d="M359.55,1006.27L322.182,1006.27L322.182,995.466L354.366,995.466L354.366,987.762L322.182,987.762L322.182,964.002L327.654,958.458L365.022,958.458L365.022,969.186L332.838,969.186L332.838,976.962L365.022,976.962L365.022,1000.72L359.55,1006.27Z" style="fill-rule:nonzero;"/>
            <path d="M414.414,1006.19L377.55,1006.19L372.222,1000.72L372.222,964.146L377.55,958.674L409.086,958.674L414.414,964.146L414.414,987.834L390.078,987.834L390.078,977.034L403.902,977.034L403.902,969.474L382.878,969.474L382.878,995.394L414.414,995.394L414.414,1006.19Z" style="fill-rule:nonzero;"/>
            <path d="M462.942,995.394L462.942,1006.19L427.59,1006.19L421.614,1000.65L421.614,964.074L427.59,958.53L462.942,958.53L462.942,969.474L433.35,969.474L433.35,995.394L462.942,995.394Z" style="fill-rule:nonzero;"/>
            <path d="M480.726,958.602L480.726,1006.19L475.326,1006.19L469.998,1000.87L469.998,958.602L480.726,958.602ZM513.198,1000.87L507.87,1006.19L488.43,1006.19L488.43,995.466L502.47,995.466L502.47,958.602L513.198,958.602L513.198,1000.87Z" style="fill-rule:nonzero;"/>
            <path d="M563.454,988.05L550.638,988.05L563.454,1006.27L550.638,1006.27L538.614,988.05L538.614,976.818L552.726,976.818L552.726,969.402L531.198,969.402L531.198,1006.27L520.398,1006.27L520.398,958.602L558.126,958.602L563.454,964.002L563.454,988.05Z" style="fill-rule:nonzero;"/>
            <rect x="570.654" y="958.53" width="10.728" height="47.736" style="fill-rule:nonzero;"/>
            <path d="M631.998,969.33L615.654,969.33L615.654,1006.27L604.854,1006.27L604.854,969.33L588.582,969.33L588.582,958.53L631.998,958.53L631.998,969.33Z" style="fill-rule:nonzero;"/>
            <path d="M666.342,984.522L666.342,1006.27L654.318,1006.27L654.318,983.658L639.198,966.234L639.198,958.53L646.902,958.53L660.87,973.65L674.046,958.53L682.614,958.53L682.614,966.234L666.342,984.522Z" style="fill-rule:nonzero;"/>
            <path d="M796.096,981.945L744.584,1026.94L725.283,1026.94L776.794,981.945L725.283,936.948L744.584,936.948L796.096,981.945Z" style="fill-rule:nonzero;"/>
            <rect x="798.629" y="1013.99" width="102.903" height="12.908" style="fill-rule:nonzero;"/>
            <path d="M973.532,1006.27L973.532,974.874L962.804,987.834L952.004,974.874L952.004,1006.27L941.132,1006.27L941.132,958.602L952.004,958.602L962.804,971.634L973.532,958.602L984.476,958.602L984.476,1006.27L973.532,1006.27Z" style="fill-rule:nonzero;"/>
            <path d="M1034.59,1006.27L997.148,1006.27L991.676,1000.58L991.676,977.466L1016.37,977.466L1016.37,987.906L1002.04,987.906L1002.04,995.97L1023.43,995.97L1023.43,969.69L991.676,969.69L991.676,959.25L1029.04,959.25L1034.59,964.794L1034.59,1006.27Z" style="fill-rule:nonzero;"/>
            <path d="M1075.48,1006.41L1052.95,977.178L1052.95,1006.41L1041.79,1006.41L1041.79,958.458L1052.95,958.458L1075.48,987.906L1075.48,958.458L1086.64,958.458L1086.64,1006.41L1075.48,1006.41Z" style="fill-rule:nonzero;"/>
            <path d="M1104.64,958.602L1104.64,1006.19L1099.24,1006.19L1093.92,1000.87L1093.92,958.602L1104.64,958.602ZM1137.12,1000.87L1131.79,1006.19L1112.35,1006.19L1112.35,995.466L1126.39,995.466L1126.39,958.602L1137.12,958.602L1137.12,1000.87Z" style="fill-rule:nonzero;"/>
            <path d="M1181.47,969.402L1154.11,969.402L1154.11,1006.19L1144.39,1006.19L1144.39,964.218L1149.36,958.674L1181.47,958.674L1181.47,969.402ZM1181.47,987.834L1160.16,987.834L1160.16,977.034L1181.54,977.178L1181.47,987.834Z" style="fill-rule:nonzero;"/>
            <path d="M1231.58,1006.27L1194.14,1006.27L1188.67,1000.58L1188.67,977.466L1213.36,977.466L1213.36,987.906L1199.04,987.906L1199.04,995.97L1220.42,995.97L1220.42,969.69L1188.67,969.69L1188.67,959.25L1226.04,959.25L1231.58,964.794L1231.58,1006.27Z" style="fill-rule:nonzero;"/>
            <path d="M1249.58,958.53L1249.58,1006.05L1238.78,1006.05L1238.78,958.53L1249.58,958.53ZM1264.77,982.146L1281.91,1006.05L1269.09,1006.05L1251.81,982.146L1269.09,958.53L1281.91,958.53L1264.77,982.146Z" style="fill-rule:nonzero;"/>
            <path d="M1331.3,969.33L1314.96,969.33L1314.96,1006.27L1304.16,1006.27L1304.16,969.33L1287.88,969.33L1287.88,958.53L1331.3,958.53L1331.3,969.33Z" style="fill-rule:nonzero;"/>
            <path d="M1349.3,958.602L1349.3,1006.19L1343.9,1006.19L1338.57,1000.87L1338.57,958.602L1349.3,958.602ZM1381.77,1000.87L1376.44,1006.19L1357,1006.19L1357,995.466L1371.04,995.466L1371.04,958.602L1381.77,958.602L1381.77,1000.87Z" style="fill-rule:nonzero;"/>
            <path d="M1432.03,988.05L1419.21,988.05L1432.03,1006.27L1419.21,1006.27L1407.19,988.05L1407.19,976.818L1421.3,976.818L1421.3,969.402L1399.77,969.402L1399.77,1006.27L1388.97,1006.27L1388.97,958.602L1426.7,958.602L1432.03,964.002L1432.03,988.05Z" style="fill-rule:nonzero;"/>
        </g>
    </g>
</svg>
